<svg width="60.033" height="30" viewBox="0 0 143.262 71.582" xmlns="http://www.w3.org/2000/svg">
  <g id="svgGroup" 
     fill-rule="evenodd" 
     font-size="9pt" 
     fill="#ffffff">
    <path d="M 109.082 71.582 L 100.293 71.582 L 100.293 0 L 109.082 0 L 109.082 40.82 L 129.883 19.727 L 141.26 19.727 L 121.436 38.965 L 143.262 71.582 L 132.422 71.582 L 115.283 45.068 L 109.082 51.025 L 109.082 71.582 Z"/>
    <path d="M 53.418 71.582 L 44.629 71.582 L 44.629 19.727 L 52.539 19.727 L 52.539 27.1 A 18.454 18.454 0 0 1 65.889 19.035 A 24.657 24.657 0 0 1 69.293 18.805 A 23.01 23.01 0 0 1 75.119 19.53 A 20.326 20.326 0 0 1 77.911 20.489 Q 81.472 22.015 83.41 24.403 A 10.569 10.569 0 0 1 83.795 24.908 A 16.164 16.164 0 0 1 85.927 29.153 A 20.139 20.139 0 0 1 86.529 31.402 A 17.05 17.05 0 0 1 86.743 32.852 Q 87.011 35.314 87.017 39.745 A 150.592 150.592 0 0 1 87.018 39.947 L 87.018 71.582 L 78.229 71.582 L 78.229 40.289 A 45.374 45.374 0 0 0 78.147 37.482 Q 77.94 34.17 77.203 32.257 A 8.613 8.613 0 0 0 73.905 28.224 A 10.706 10.706 0 0 0 73.565 28.009 A 11.116 11.116 0 0 0 69.369 26.551 A 14.283 14.283 0 0 0 67.437 26.422 A 14.49 14.49 0 0 0 57.745 29.986 Q 53.418 33.551 53.418 43.512 L 53.418 71.582 Z"/>
    <path d="M 8.789 71.582 L 0 71.582 L 0 0 L 8.789 0 L 8.789 71.582 Z"/>
    <path d="M 31.25 71.582 L 22.461 71.582 L 22.461 19.727 L 31.25 19.727 L 31.25 71.582 Z"/>
    <path d="M 31.25 10.107 L 22.461 10.107 L 22.461 0 L 31.25 0 L 31.25 10.107 Z" fill="#FFBC4E"/>
  </g>
</svg>