<svg id="Link_Configurator" data-name="Link Configurator" xmlns="http://www.w3.org/2000/svg" width="24" height="24" viewBox="0 0 24 24">
  <g id="Layer_1" data-name="Layer 1">
    <path id="Path_657" data-name="Path 657" d="M18.656,24H5.344A5.344,5.344,0,0,1,0,18.656V5.344A5.344,5.344,0,0,1,5.344,0H18.656A5.344,5.344,0,0,1,24,5.344V18.656A5.361,5.361,0,0,1,18.656,24Z" fill="#343e4a"/>
    <path id="Path_658" data-name="Path 658" d="M38.081,92.635a2.585,2.585,0,0,1,3.574,0,1.1,1.1,0,0,0,1.554-1.552,4.731,4.731,0,0,0-6.682,0l-3.147,3.153a4.716,4.716,0,0,0,6.673,6.665L41.4,99.556A1.1,1.1,0,1,0,39.844,98L38.5,99.348a2.585,2.585,0,0,1-3.574,0,2.524,2.524,0,0,1,0-3.569Z" transform="translate(-29 -81.292)" fill="#fff"/>
    <path id="Path_659" data-name="Path 659" d="M108.281,43.113l3.147-3.143a4.723,4.723,0,1,0-6.683-6.674l-1.336,1.342a1.1,1.1,0,0,0,1.554,1.552l1.346-1.344a2.525,2.525,0,1,1,3.574,3.569l-3.147,3.142a2.585,2.585,0,0,1-3.574,0,1.1,1.1,0,0,0-1.554,1.552,4.719,4.719,0,0,0,6.673,0Z" transform="translate(-91.807 -28.919)" fill="#ffbc4e"/>
  </g>
</svg>
