
<svg id="Display_Node" data-name="Display Node" xmlns="http://www.w3.org/2000/svg" width="40" height="40" viewBox="0 0 24 24">
  <g id="Layer_1" data-name="Layer 1" transform="translate(0)">
    <path id="Path_647" data-name="Path 647" d="M18.652,24H5.34A5.347,5.347,0,0,1,0,18.653V5.34A5.348,5.348,0,0,1,5.347,0H18.66A5.347,5.347,0,0,1,24,5.348V18.66A5.359,5.359,0,0,1,18.652,24Z" transform="translate(0 0)" fill="#343e4a"/>
    <path id="Path_648" data-name="Path 648" d="M22.093,27.615l-3.358,3.358a1.688,1.688,0,1,0,.4.4l3.36-3.358A3.846,3.846,0,0,1,22.093,27.615ZM32.37,16.05a1.687,1.687,0,0,0-1.687,1.688,1.723,1.723,0,0,0,.309.981l-3.36,3.349a5.35,5.35,0,0,1,.4.4l3.358-3.358a1.687,1.687,0,1,0,1.95-2.749,1.667,1.667,0,0,0-.969-.309ZM31.1,29.541a1.629,1.629,0,0,0-.879.27l-2.2-2.207a5.063,5.063,0,0,1-.4.4l2.2,2.2a1.545,1.545,0,1,0,2.149-.4,1.468,1.468,0,0,0-.868-.263ZM19.3,20.827a1.624,1.624,0,0,0,.878-.27l1.911,1.909a5.043,5.043,0,0,1,.4-.4l-1.911-1.9a1.549,1.549,0,1,0-1.279.669Zm5.477-1.579v1.875a2.351,2.351,0,0,1,.276-.021,2.321,2.321,0,0,1,.279.011V19.239a1.262,1.262,0,1,0-1.5-.951A1.247,1.247,0,0,0,24.782,19.249Zm7.026,4.387a1.414,1.414,0,0,0-1.38,1.125H28.995a2.783,2.783,0,0,1,0,.279v.281h1.438a1.408,1.408,0,1,0,1.38-1.687ZM18.594,26.166a1.138,1.138,0,0,0,1.091-.84h1.449a2.321,2.321,0,0,1-.015-.285,2.351,2.351,0,0,1,.011-.281H19.686a1.125,1.125,0,1,0-1.091,1.406Zm6.75,4.667V28.957a2.321,2.321,0,0,1-.287.021,2.352,2.352,0,0,1-.281-.011v1.875a1.262,1.262,0,1,0,1.5.951,1.277,1.277,0,0,0-.934-.96Z" transform="translate(-13.057 -13.041)" fill="#fff"/>
    <path id="Path_649" data-name="Path 649" d="M49.375,46a3.375,3.375,0,1,0,3.375,3.375A3.375,3.375,0,0,0,49.375,46Z" transform="translate(-37.375 -37.375)" fill="#ffbc4e"/>
  </g>
</svg>
